<svg version="1.1" xmlns="http://www.w3.org/2000/svg" viewBox="0 0 389 187" width="389" height="187">
  <!-- svg-source:excalidraw -->
  
  <defs>
    <style>
      @font-face {
        font-family: "Virgil";
        src: url("https://excalidraw.com/Virgil.woff2");
      }
      @font-face {
        font-family: "Cascadia";
        src: url("https://excalidraw.com/Cascadia.woff2");
      }
    </style>
  </defs>
  <g stroke-linecap="round" transform="translate(10 10) rotate(0 184.5 83.5)"><path d="M41.75 0 M41.75 0 C114.64 -1.07, 187.61 -1.04, 327.25 0 M41.75 0 C154.78 1.53, 267.16 1.35, 327.25 0 M327.25 0 C353.31 0.94, 368.14 12.35, 369 41.75 M327.25 0 C353.56 -0.16, 368.83 15.22, 369 41.75 M369 41.75 C368.81 59.02, 366.41 73.59, 369 125.25 M369 41.75 C369.61 63.22, 370.16 85.67, 369 125.25 M369 125.25 C370.47 152.83, 354.71 165.08, 327.25 167 M369 125.25 C371.11 153.59, 356.8 169.1, 327.25 167 M327.25 167 C229.22 165.89, 131.68 166.08, 41.75 167 M327.25 167 C244.72 169.4, 162.27 169.45, 41.75 167 M41.75 167 C13.96 168.94, 1.73 154.38, 0 125.25 M41.75 167 C13.66 168.2, -2.16 150.91, 0 125.25 M0 125.25 C-0.1 97.67, 0.69 73.13, 0 41.75 M0 125.25 C0.83 101.99, 1.1 80.53, 0 41.75 M0 41.75 C-0.13 15.21, 13.17 1.7, 41.75 0 M0 41.75 C-2.04 14, 15.61 0.12, 41.75 0" stroke="#000000" stroke-width="1" fill="none"></path></g><g transform="translate(115 61) rotate(0 82.5 31.5)"><text x="0" y="44" font-family="Virgil, Segoe UI Emoji" font-size="50.400000000000034px" fill="#000000" text-anchor="start" style="white-space: pre;" direction="ltr">Anurag</text></g></svg>